<svg id="Capa_1" enable-background="new 0 0 512 512" height="512" viewBox="0 0 512 512" width="512" xmlns="http://www.w3.org/2000/svg" xmlns:xlink="http://www.w3.org/1999/xlink"><linearGradient id="SVGID_1_" gradientUnits="userSpaceOnUse" x1="256" x2="256" y1="512" y2="-85.333"><stop offset="0" stop-color="#ffedad"/><stop offset="1" stop-color="#ffffe5"/></linearGradient><linearGradient id="SVGID_00000115474874437423411750000011332374374477844405_" gradientUnits="userSpaceOnUse" x1="256" x2="256" y1="407" y2="105"><stop offset="0" stop-color="#ffde00"/><stop offset="1" stop-color="#fd5900"/></linearGradient><g><circle cx="256" cy="256" fill="url(#SVGID_1_)" r="256"/><path d="m407 392.254v5.898c0 4.886-3.961 8.848-8.848 8.848h-284.304c-4.886 0-8.848-3.961-8.848-8.848v-5.898c0-14.659 11.884-26.543 26.543-26.543h248.914c14.659 0 26.543 11.884 26.543 26.543zm-159.848-115.02h-8.848c-14.636 0-26.543-11.907-26.543-26.543s11.907-26.543 26.543-26.543h35.391c14.636 0 26.543 11.907 26.543 26.543s-11.907 26.543-26.543 26.543h-8.848v70.781h97.938l-23.17-139.018c-3.093-18.563-18.998-32.037-37.818-32.037h-91.595c-18.82 0-34.724 13.474-37.818 32.037l-23.17 139.018h97.938zm35.391-26.543c0-4.879-3.969-8.848-8.848-8.848h-35.391c-4.879 0-8.848 3.969-8.848 8.848s3.969 8.848 8.848 8.848h35.391c4.879 0 8.848-3.969 8.848-8.848zm-26.543-92.605c4.886 0 8.848-3.961 8.848-8.848v-35.391c0-4.886-3.961-8.848-8.848-8.848s-8.848 3.961-8.848 8.848v35.391c0 4.887 3.962 8.848 8.848 8.848zm60.33-1.261c4.19 2.514 9.625 1.156 12.139-3.034l17.696-29.492c2.514-4.19 1.155-9.625-3.035-12.139-4.19-2.514-9.625-1.155-12.139 3.035l-17.696 29.492c-2.513 4.189-1.155 9.624 3.035 12.138zm-132.8-3.035c2.514 4.19 7.949 5.549 12.139 3.035 4.19-2.514 5.549-7.949 3.035-12.139l-17.695-29.492c-2.514-4.19-7.949-5.549-12.139-3.035-4.19 2.514-5.549 7.949-3.035 12.139z" fill="url(#SVGID_00000115474874437423411750000011332374374477844405_)"/></g></svg>